<svg width="64" height="64" viewBox="0 0 64 64" fill="none" xmlns="http://www.w3.org/2000/svg">
<g clip-path="url(#clip0_1132_2)">
<path d="M2.67999 0.592013C1.55199 0.952013 0.73599 1.76001 0.39999 2.86401C0.23999 3.36801 0.23999 3.72001 0.23999 31.952C0.23999 55.896 0.25599 60.584 0.35199 60.928C0.61599 61.912 1.27199 62.696 2.22399 63.144L2.75999 63.4H32H61.24L61.68 63.224C62.512 62.888 63.208 62.168 63.592 61.264L63.8 60.76L63.824 32.24C63.832 13.464 63.816 3.57601 63.76 3.28801C63.64 2.64001 63.336 2.04801 62.872 1.56001C62.392 1.05601 61.976 0.792013 61.368 0.608013C60.968 0.488013 58.36 0.480013 31.968 0.488013C8.79999 0.488013 2.93599 0.512013 2.67999 0.592013ZM61.136 1.93601C61.632 2.16001 61.96 2.45601 62.208 2.89601L62.44 3.32001L62.464 16.576L62.48 29.84H32.04H1.59999V16.616C1.59999 3.49601 1.60799 3.40001 1.76799 3.04001C2.04799 2.41601 2.60799 1.97601 3.27999 1.83201C3.43199 1.80001 16.448 1.78401 32.2 1.79201C58.96 1.80001 60.856 1.80801 61.136 1.93601ZM20.4 37.08C20.696 37.36 20.696 37.416 20.432 37.536C20.256 37.616 20.216 37.608 20.144 37.488C19.936 37.112 19.208 37.192 18.992 37.616C18.704 38.168 19.04 38.96 19.56 38.96C19.784 38.96 20.16 38.8 20.16 38.704C20.16 38.6 20.352 38.624 20.528 38.752C20.68 38.864 20.68 38.872 20.488 39.072C20.072 39.512 19.24 39.528 18.752 39.104C18.24 38.656 18.2 37.752 18.664 37.224C18.984 36.856 19.144 36.8 19.704 36.824C20.08 36.848 20.2 36.888 20.4 37.08ZM23.28 37.04V37.28H22.6H21.92V37.6V37.92H22.48C23.024 37.92 23.04 37.928 23.04 38.12C23.04 38.312 23.024 38.32 22.48 38.32H21.92V38.64V38.96H22.64C23.352 38.96 23.36 38.96 23.36 39.16V39.36H22.4H21.44V38.08V36.8H22.36H23.28V37.04ZM25.696 36.88C26.328 37.056 26.52 37.728 26.08 38.176L25.84 38.416L26.112 38.864L26.392 39.32L26.192 39.344C25.88 39.384 25.792 39.328 25.552 38.888C25.352 38.504 25.312 38.48 25.024 38.48H24.72V38.92V39.36H24.44H24.16V38.136C24.16 37.456 24.184 36.88 24.216 36.856C24.296 36.768 25.368 36.792 25.696 36.88ZM29.12 37.04C29.12 37.28 29.112 37.28 28.68 37.28H28.24V38.32V39.36H28H27.76V38.32V37.28H27.36C26.968 37.28 26.96 37.272 26.96 37.04V36.8H28.04H29.12V37.04ZM30.32 38.08V39.36H30.08H29.84V38.08V36.8H30.08H30.32V38.08ZM33.12 37.04V37.28H32.44H31.76V37.6V37.92H32.32H32.88V38.16V38.4H32.32H31.76V38.88V39.36H31.52H31.28V38.08V36.8H32.2H33.12V37.04ZM34.48 38.08V39.36H34.24H34V38.08V36.8H34.24H34.48V38.08ZM37.176 36.96C37.312 37.04 37.472 37.184 37.52 37.28C37.592 37.416 37.576 37.456 37.4 37.536C37.224 37.616 37.176 37.6 37.04 37.456C36.816 37.224 36.536 37.16 36.272 37.296C35.752 37.544 35.68 38.496 36.152 38.856C36.352 39.008 36.76 38.976 36.992 38.792C37.176 38.648 37.24 38.632 37.408 38.712C37.576 38.784 37.592 38.824 37.52 38.96C37.296 39.376 36.36 39.536 35.856 39.24C35.12 38.8 35.104 37.488 35.832 36.992C36.2 36.744 36.8 36.728 37.176 36.96ZM39.88 37.336C40.128 37.944 40.56 39.192 40.56 39.296C40.56 39.328 40.44 39.36 40.288 39.36C40.04 39.36 40.008 39.336 39.944 39.056L39.872 38.76L39.344 38.736L38.816 38.712L38.744 39.016C38.68 39.28 38.64 39.32 38.416 39.344C38.232 39.36 38.16 39.336 38.16 39.248C38.16 39.112 38.608 37.856 38.88 37.216C39.048 36.816 39.072 36.8 39.36 36.8C39.656 36.8 39.664 36.808 39.88 37.336ZM43.04 37.032C43.04 37.264 43.024 37.272 42.624 37.296L42.2 37.32L42.176 38.336L42.152 39.36H41.92H41.68V38.32V37.28H41.28C40.888 37.28 40.88 37.272 40.88 37.04V36.8H41.96H43.04V37.032ZM45.6 37.04V37.28H44.92H44.24V37.6V37.92H44.8C45.344 37.92 45.36 37.928 45.36 38.12C45.36 38.312 45.344 38.32 44.792 38.32H44.232L44.256 38.616L44.28 38.92L44.984 38.944C45.664 38.968 45.68 38.968 45.68 39.16V39.36H44.72H43.76V38.08V36.8H44.68H45.6V37.04ZM44.4 45.32V47.28H44.16C43.952 47.28 43.92 47.248 43.92 47.056C43.92 46.936 43.888 46.88 43.856 46.928C43.704 47.152 43.384 47.28 42.992 47.28C42.264 47.28 41.84 46.776 41.84 45.92C41.84 45.368 41.96 45.072 42.32 44.768C42.68 44.472 43.32 44.472 43.672 44.768L43.92 44.976V44.168V43.36H44.16H44.4V45.32ZM21.92 43.76V44H20.88H19.84V44.6V45.2H20.72H21.6V45.44V45.68H20.72H19.84V46.48V47.28H19.6H19.36V45.4V43.52H20.64H21.92V43.76ZM38 43.76V44H36.92H35.84V44.56V45.12H36.72H37.6V45.36V45.6H36.72H35.84V46.2V46.8H36.92H38V47.04V47.28L36.664 47.264L35.32 47.24L35.296 45.376L35.28 43.52H36.64H38V43.76ZM31.6 44.2V44.56H32C32.376 44.56 32.4 44.576 32.4 44.76C32.4 44.944 32.376 44.96 32 44.96H31.6V45.792C31.6 46.784 31.672 46.92 32.176 46.856C32.48 46.816 32.488 46.824 32.464 47.024C32.44 47.216 32.4 47.24 32.088 47.264C31.664 47.296 31.336 47.168 31.208 46.936C31.16 46.84 31.112 46.36 31.104 45.88L31.08 45L30.824 44.976C30.608 44.952 30.56 44.92 30.56 44.752C30.56 44.584 30.6 44.56 30.84 44.56C31.12 44.56 31.12 44.56 31.12 44.2C31.12 43.856 31.128 43.84 31.36 43.84C31.592 43.84 31.6 43.856 31.6 44.2ZM22.96 44.76V44.952L23.16 44.76C23.288 44.624 23.44 44.56 23.64 44.56C23.896 44.56 23.92 44.576 23.92 44.8C23.92 45.008 23.896 45.04 23.688 45.04C23.096 45.04 22.96 45.296 22.96 46.44V47.28H22.72H22.48V45.92V44.56H22.72C22.92 44.56 22.96 44.592 22.96 44.76ZM26.32 44.68C26.448 44.744 26.648 44.936 26.76 45.096C26.92 45.344 26.96 45.496 26.96 45.92C26.96 46.816 26.504 47.28 25.632 47.28C25.056 47.28 24.68 47.064 24.472 46.608C24.16 45.928 24.352 45.08 24.896 44.728C25.216 44.528 25.968 44.496 26.32 44.68ZM28.16 44.768V44.976L28.408 44.768C28.6 44.6 28.736 44.56 29.072 44.56C29.872 44.56 30.096 44.976 30.064 46.36L30.04 47.24H29.8H29.56L29.52 46.216C29.488 45.32 29.464 45.176 29.328 45.072C29.136 44.936 28.712 44.928 28.544 45.056C28.224 45.328 28.16 45.536 28.16 46.416V47.28H27.92H27.68V45.92V44.56H27.92C28.128 44.56 28.16 44.592 28.16 44.768ZM39.28 44.768V44.976L39.528 44.768C39.72 44.608 39.856 44.56 40.176 44.56C40.528 44.56 40.608 44.592 40.848 44.832L41.12 45.104V46.192V47.28H40.88H40.64V46.352C40.64 45.176 40.544 44.96 40.016 44.96C39.816 44.96 39.68 45.024 39.512 45.208C39.288 45.456 39.28 45.472 39.28 46.368V47.28H39.04H38.8V45.92V44.56H39.04C39.248 44.56 39.28 44.592 39.28 44.768ZM34.56 45.8V46H33.64H32.72V45.8V45.6H33.64H34.56V45.8ZM33.344 51.696L33.32 53.64H33.08H32.84L32.816 51.696L32.8 49.76H33.08H33.36L33.344 51.696ZM22.376 50.144C23.008 50.472 23.32 51.112 23.264 51.96C23.224 52.64 22.912 53.152 22.36 53.432C22.008 53.616 21.88 53.64 21.008 53.64H20.04L20.016 51.768L20 49.904L21.016 49.936C21.88 49.96 22.096 49.992 22.376 50.144ZM25.816 51.12C26.128 51.304 26.304 51.632 26.376 52.12L26.424 52.48H25.408C24.856 52.48 24.4 52.496 24.4 52.52C24.4 52.68 24.656 53.12 24.784 53.192C25.016 53.32 25.408 53.304 25.688 53.16C25.864 53.064 25.96 53.056 26.088 53.12C26.224 53.192 26.232 53.232 26.152 53.328C25.968 53.552 25.608 53.68 25.176 53.68C24.392 53.68 23.92 53.176 23.92 52.32C23.92 51.488 24.4 50.96 25.152 50.96C25.416 50.96 25.648 51.016 25.816 51.12ZM27.648 52.08C27.952 52.968 28.048 53.176 28.112 53.064C28.152 52.984 28.336 52.488 28.52 51.96C28.848 51.024 28.856 51 29.104 50.976C29.256 50.96 29.36 50.984 29.36 51.04C29.36 51.16 28.656 53.008 28.472 53.376C28.336 53.64 28.28 53.68 28.04 53.68C27.776 53.68 27.744 53.656 27.56 53.232C27.36 52.784 26.72 51.08 26.72 51C26.72 50.976 26.84 50.96 26.992 50.96H27.264L27.648 52.08ZM31.576 51.12C31.888 51.304 32.064 51.632 32.136 52.12L32.184 52.48H31.168C30.616 52.48 30.16 52.496 30.16 52.52C30.16 52.68 30.416 53.12 30.544 53.192C30.776 53.32 31.168 53.304 31.448 53.16C31.624 53.064 31.72 53.056 31.848 53.12C31.984 53.192 31.992 53.232 31.912 53.328C31.728 53.552 31.368 53.68 30.936 53.68C30.152 53.68 29.68 53.176 29.68 52.32C29.68 51.488 30.16 50.96 30.912 50.96C31.176 50.96 31.408 51.016 31.576 51.12ZM36.32 51.328C36.872 51.92 36.856 52.768 36.28 53.336C35.952 53.672 35.928 53.68 35.424 53.68C35.016 53.68 34.848 53.64 34.64 53.496C34.24 53.232 34.056 52.864 34.048 52.328C34.04 51.792 34.232 51.416 34.648 51.136C34.88 50.976 34.992 50.952 35.472 50.976C35.992 51.008 36.032 51.024 36.32 51.328ZM37.896 51.12C37.936 51.28 37.936 51.28 38.16 51.12C38.456 50.904 39.072 50.904 39.416 51.12C40.168 51.576 40.176 53.064 39.424 53.52C39.064 53.736 38.464 53.736 38.152 53.512L37.92 53.352V54.032V54.72H37.64H37.36V52.896C37.36 51.888 37.384 51.04 37.416 51.016C37.536 50.896 37.856 50.96 37.896 51.12ZM42.456 51.12C42.768 51.304 42.944 51.632 43.016 52.12L43.064 52.48H42.048C41.496 52.48 41.04 52.496 41.04 52.52C41.04 52.68 41.296 53.12 41.424 53.192C41.656 53.32 42.048 53.304 42.328 53.16C42.504 53.064 42.6 53.056 42.728 53.12C42.864 53.192 42.872 53.232 42.792 53.328C42.608 53.552 42.248 53.68 41.816 53.68C41.032 53.68 40.56 53.176 40.56 52.32C40.56 51.488 41.04 50.96 41.792 50.96C42.056 50.96 42.288 51.016 42.456 51.12ZM44.216 51.12C44.256 51.28 44.256 51.28 44.456 51.12C44.568 51.032 44.784 50.96 44.928 50.96C45.176 50.96 45.2 50.984 45.2 51.2C45.2 51.424 45.184 51.44 44.896 51.44C44.376 51.44 44.288 51.616 44.24 52.704L44.2 53.64H43.96H43.72L43.696 52.4C43.688 51.72 43.696 51.12 43.712 51.064C43.784 50.896 44.168 50.936 44.216 51.12Z" fill="#1877F2"/>
<path d="M17.128 12.736C15.712 12.984 14.568 14.904 14.544 17.08C14.528 18.096 14.688 18.608 15.152 19.08C15.744 19.664 16.624 19.752 17.352 19.296C17.816 19.016 18.408 18.224 19.088 16.992C19.392 16.448 19.672 16.016 19.712 16.024C19.752 16.04 20.096 16.568 20.48 17.2C21.336 18.616 21.928 19.296 22.456 19.472C22.992 19.656 23.424 19.632 23.888 19.4C24.328 19.176 24.568 18.872 24.76 18.256C24.928 17.736 24.888 16.216 24.688 15.48C24.512 14.856 24.08 13.992 23.976 14.056C23.936 14.08 23.92 14.064 23.944 14.024C23.976 13.976 23.92 13.832 23.816 13.712C23.128 12.824 22.08 12.488 21.208 12.88C21.016 12.968 20.632 13.28 20.352 13.568L19.848 14.096L19.384 13.616C18.664 12.88 17.936 12.592 17.128 12.736ZM22.368 13.672C23.272 14.08 23.92 15.512 23.92 17.088C23.92 18.104 23.704 18.48 23.128 18.48C22.672 18.48 22.352 18.104 21.08 16.008C20.304 14.72 20.312 14.792 20.848 14.168C21.136 13.84 21.656 13.52 21.92 13.52C21.984 13.52 22.184 13.592 22.368 13.672ZM17.864 13.872C18.12 13.928 18.648 14.384 18.968 14.824L19.192 15.128L18.464 16.264C17.256 18.16 16.96 18.48 16.424 18.48C16.096 18.48 15.872 18.288 15.712 17.88C15.344 16.912 16 14.648 16.816 14.072C17.056 13.896 17.424 13.768 17.56 13.808C17.608 13.816 17.736 13.848 17.864 13.872Z" fill="#1877F2"/>
<path d="M27.1199 16.2V19.52H27.6399H28.1599V17.016C28.1679 14.824 28.1759 14.536 28.2799 14.672C28.3439 14.76 28.7839 15.52 29.2559 16.376L30.1039 17.92H30.6319L31.1599 17.912L32.0799 16.24L32.9999 14.568L33.0399 17.024L33.0799 19.48H33.5999H34.1199V16.2V12.92H33.4799H32.8399L31.7679 14.856C31.1759 15.928 30.6639 16.8 30.6399 16.8C30.6079 16.8 30.1199 15.96 29.5599 14.936C28.9999 13.92 28.5039 13.032 28.4559 12.976C28.4079 12.912 28.1599 12.88 27.7519 12.88H27.1199V16.2Z" fill="#1877F2"/>
<path d="M41.0401 13.84V14.56H40.5601H40.0801V15V15.44H40.5601H41.0401V16.848C41.0401 18.424 41.1041 18.768 41.4801 19.16C41.8321 19.544 42.5441 19.696 43.2721 19.552C43.5121 19.504 43.5201 19.488 43.5201 19.072V18.64H43.0081C42.6241 18.64 42.4481 18.6 42.3121 18.488C42.1281 18.336 42.1201 18.296 42.0961 16.888L42.0721 15.44H42.7921H43.5201V15V14.56H42.8001H42.0881L42.0641 13.856L42.0401 13.16L41.5441 13.136L41.0401 13.112V13.84Z" fill="#1877F2"/>
<path d="M36.6401 14.6C35.5761 14.928 34.9121 16.216 35.1281 17.528C35.3281 18.76 36.1281 19.496 37.3681 19.584C38.0561 19.632 38.8241 19.44 39.2801 19.112C39.4561 18.984 39.6001 18.856 39.6001 18.816C39.5921 18.784 39.4721 18.624 39.3281 18.456L39.0721 18.144L38.7681 18.352C38.0081 18.864 37.0401 18.816 36.5041 18.232C36.3361 18.048 36.1601 17.68 36.1601 17.512C36.1601 17.472 36.8961 17.44 37.9601 17.44H39.7601V17.176C39.7601 16.376 39.4241 15.44 38.9841 15.024C38.4481 14.512 37.4881 14.344 36.6401 14.6ZM38.0801 15.536C38.4161 15.768 38.6161 16.048 38.6801 16.376L38.7361 16.64H37.4481C36.0241 16.64 36.0641 16.656 36.3121 16.112C36.4481 15.808 36.7441 15.528 37.0401 15.416C37.3361 15.304 37.8241 15.368 38.0801 15.536Z" fill="#1877F2"/>
<path d="M45.2961 14.728C43.5921 15.576 43.6241 18.576 45.3441 19.408C45.7201 19.584 46.4241 19.64 46.8561 19.528C47.0401 19.48 47.3601 19.312 47.5601 19.16L47.9201 18.88V19.2V19.52H48.4001H48.8801V17.04V14.56H48.4001H47.9201V14.84C47.9201 15.16 47.8481 15.192 47.6321 14.952C47.3681 14.656 46.8881 14.48 46.3121 14.48C45.8801 14.48 45.6961 14.528 45.2961 14.728ZM47.2081 15.568C47.3281 15.624 47.5121 15.784 47.6321 15.92C47.8241 16.16 47.8401 16.224 47.8401 17.016C47.8401 17.792 47.8241 17.888 47.6481 18.12C47.3841 18.464 46.9841 18.64 46.4561 18.64C45.9281 18.64 45.5681 18.424 45.3041 17.96C45.0481 17.504 45.0481 16.576 45.3041 16.128C45.6961 15.44 46.4881 15.208 47.2081 15.568Z" fill="#1877F2"/>
<path d="M24.72 37.68V38.08H25.032C25.536 38.08 25.76 37.96 25.76 37.696C25.76 37.376 25.624 37.28 25.144 37.28H24.72V37.68Z" fill="#1877F2"/>
<path d="M39.136 37.848L38.968 38.32H39.32C39.52 38.32 39.68 38.288 39.68 38.256C39.68 38.128 39.424 37.44 39.368 37.408C39.336 37.384 39.232 37.584 39.136 37.848Z" fill="#1877F2"/>
<path d="M42.736 45.04C42.376 45.192 42.216 45.912 42.432 46.44C42.616 46.872 43.048 47.008 43.512 46.768C43.776 46.624 43.92 46.336 43.92 45.92C43.92 45.184 43.384 44.784 42.736 45.04Z" fill="#1877F2"/>
<path d="M25.176 45.128C24.536 45.624 24.848 46.88 25.608 46.88C26.288 46.88 26.656 46.208 26.392 45.448C26.232 44.984 25.568 44.808 25.176 45.128Z" fill="#1877F2"/>
<path d="M20.5601 51.8V53.2H21.1361C22.2721 53.2 22.7681 52.72 22.7041 51.672C22.6561 50.736 22.2481 50.4 21.1841 50.4H20.5601V51.8Z" fill="#1877F2"/>
<path d="M24.7759 51.448C24.6559 51.52 24.3999 51.968 24.3999 52.104C24.3999 52.128 24.7279 52.144 25.1199 52.152L25.8399 52.168V51.96C25.8399 51.504 25.1999 51.2 24.7759 51.448Z" fill="#1877F2"/>
<path d="M30.5359 51.448C30.4159 51.52 30.1599 51.968 30.1599 52.104C30.1599 52.128 30.4879 52.144 30.8799 52.152L31.5999 52.168V51.96C31.5999 51.504 30.9599 51.2 30.5359 51.448Z" fill="#1877F2"/>
<path d="M34.9359 51.448C34.5839 51.656 34.4479 52.424 34.6799 52.888C34.9199 53.336 35.5519 53.416 35.9279 53.048C36.1359 52.84 36.1599 52.76 36.1599 52.32C36.1599 51.88 36.1359 51.8 35.9279 51.592C35.7439 51.416 35.6159 51.36 35.3839 51.36C35.2159 51.36 35.0159 51.4 34.9359 51.448Z" fill="#1877F2"/>
<path d="M38.1519 51.592C37.9439 51.8 37.9199 51.88 37.9199 52.32C37.9199 52.76 37.9439 52.84 38.1519 53.048C38.4879 53.384 38.9439 53.376 39.2319 53.032C39.4079 52.832 39.4399 52.704 39.4399 52.32C39.4399 51.936 39.4079 51.808 39.2319 51.608C38.9439 51.264 38.4879 51.256 38.1519 51.592Z" fill="#1877F2"/>
<path d="M41.416 51.448C41.288 51.52 41.04 51.968 41.04 52.12C41.04 52.144 41.368 52.16 41.76 52.16C42.48 52.16 42.48 52.16 42.48 51.96C42.48 51.504 41.84 51.2 41.416 51.448Z" fill="#1877F2"/>
</g>
<defs>
<clipPath id="clip0_1132_2">
<rect width="64" height="64" fill="white"/>
</clipPath>
</defs>
</svg>
