<svg width="29" height="29" viewBox="0 0 29 29" fill="none" xmlns="http://www.w3.org/2000/svg">
<g clip-path="url(#clip0_1125_3)">
<path d="M1.21439 0.268253C0.703265 0.431379 0.333515 0.797504 0.181265 1.29775C0.108765 1.52613 0.108765 1.68563 0.108765 14.4783C0.108765 25.3279 0.116015 27.4521 0.159515 27.608C0.27914 28.0539 0.57639 28.4091 1.00776 28.6121L1.25064 28.7281H14.5H27.7494L27.9488 28.6484C28.3258 28.4961 28.6411 28.1699 28.8151 27.7603L28.9094 27.5319L28.9203 14.6088C28.9239 6.10088 28.9166 1.62038 28.8913 1.48988C28.8369 1.19625 28.6991 0.928003 28.4889 0.706879C28.2714 0.478504 28.0829 0.358879 27.8074 0.275505C27.6261 0.221128 26.4444 0.217505 14.4855 0.221128C3.98751 0.221128 1.33039 0.232004 1.21439 0.268253ZM27.7023 0.877254C27.927 0.978754 28.0756 1.11288 28.188 1.31225L28.2931 1.50438L28.304 7.511L28.3113 13.5213H14.5181H0.725015V7.52913C0.725015 1.58413 0.72864 1.54063 0.80114 1.3775C0.928015 1.09475 1.18176 0.89538 1.48626 0.83013C1.55514 0.81563 7.45301 0.808378 14.5906 0.812004C26.7163 0.81563 27.5754 0.819254 27.7023 0.877254ZM9.24376 16.8019C9.37789 16.9288 9.37789 16.9541 9.25826 17.0085C9.17852 17.0448 9.16039 17.0411 9.12776 16.9868C9.03351 16.8164 8.70364 16.8526 8.60577 17.0448C8.47526 17.2949 8.62751 17.6538 8.86314 17.6538C8.96464 17.6538 9.13501 17.5813 9.13501 17.5378C9.13501 17.4906 9.22202 17.5015 9.30177 17.5595C9.37064 17.6103 9.37064 17.6139 9.28364 17.7045C9.09514 17.9039 8.71814 17.9111 8.49701 17.719C8.26501 17.516 8.24689 17.1064 8.45714 16.8671C8.60214 16.7004 8.67464 16.675 8.92839 16.6859C9.09877 16.6968 9.15314 16.7149 9.24376 16.8019ZM10.5488 16.7838V16.8925H10.2406H9.93252V17.0375V17.1825H10.1863C10.4328 17.1825 10.44 17.1861 10.44 17.2731C10.44 17.3601 10.4328 17.3638 10.1863 17.3638H9.93252V17.5088V17.6538H10.2588C10.5814 17.6538 10.585 17.6538 10.585 17.7444V17.835H10.15H9.71502V17.255V16.675H10.1319H10.5488V16.7838ZM11.6435 16.7113C11.9299 16.791 12.0169 17.0955 11.8175 17.2985L11.7088 17.4073L11.832 17.6103L11.9589 17.8169L11.8683 17.8278C11.7269 17.8459 11.687 17.8205 11.5783 17.6211C11.4876 17.4471 11.4695 17.4363 11.339 17.4363H11.2013V17.6356V17.835H11.0744H10.9475V17.2804C10.9475 16.9723 10.9584 16.7113 10.9729 16.7004C11.0091 16.6605 11.4949 16.6714 11.6435 16.7113ZM13.195 16.7838C13.195 16.8925 13.1914 16.8925 12.9956 16.8925H12.7963V17.3638V17.835H12.6875H12.5788V17.3638V16.8925H12.3975C12.2199 16.8925 12.2163 16.8889 12.2163 16.7838V16.675H12.7056H13.195V16.7838ZM13.7388 17.255V17.835H13.63H13.5213V17.255V16.675H13.63H13.7388V17.255ZM15.0075 16.7838V16.8925H14.6994H14.3913V17.0375V17.1825H14.645H14.8988V17.2913V17.4H14.645H14.3913V17.6175V17.835H14.2825H14.1738V17.255V16.675H14.5906H15.0075V16.7838ZM15.6238 17.255V17.835H15.515H15.4063V17.255V16.675H15.515H15.6238V17.255ZM16.8454 16.7475C16.907 16.7838 16.9795 16.849 17.0013 16.8925C17.0339 16.9541 17.0266 16.9723 16.9469 17.0085C16.8671 17.0448 16.8454 17.0375 16.7838 16.9723C16.6823 16.8671 16.5554 16.8381 16.4358 16.8998C16.2001 17.0121 16.1675 17.4435 16.3814 17.6066C16.472 17.6755 16.6569 17.661 16.762 17.5776C16.8454 17.5124 16.8744 17.5051 16.9505 17.5414C17.0266 17.574 17.0339 17.5921 17.0013 17.6538C16.8998 17.8423 16.4756 17.9148 16.2473 17.7806C15.9138 17.5813 15.9065 16.9868 16.2364 16.762C16.4031 16.6496 16.675 16.6424 16.8454 16.7475ZM18.0706 16.9179C18.183 17.1934 18.3788 17.7589 18.3788 17.806C18.3788 17.8205 18.3244 17.835 18.2555 17.835C18.1431 17.835 18.1286 17.8241 18.0996 17.6973L18.067 17.5631L17.8278 17.5523L17.5885 17.5414L17.5559 17.6791C17.5269 17.7988 17.5088 17.8169 17.4073 17.8278C17.3239 17.835 17.2913 17.8241 17.2913 17.7843C17.2913 17.7226 17.4943 17.1535 17.6175 16.8635C17.6936 16.6823 17.7045 16.675 17.835 16.675C17.9691 16.675 17.9728 16.6786 18.0706 16.9179ZM19.5025 16.7801C19.5025 16.8853 19.4953 16.8889 19.314 16.8998L19.1219 16.9106L19.111 17.371L19.1001 17.835H18.995H18.8863V17.3638V16.8925H18.705C18.5274 16.8925 18.5238 16.8889 18.5238 16.7838V16.675H19.0131H19.5025V16.7801ZM20.6625 16.7838V16.8925H20.3544H20.0463V17.0375V17.1825H20.3C20.5465 17.1825 20.5538 17.1861 20.5538 17.2731C20.5538 17.3601 20.5465 17.3638 20.2964 17.3638H20.0426L20.0535 17.4979L20.0644 17.6356L20.3834 17.6465C20.6915 17.6574 20.6988 17.6574 20.6988 17.7444V17.835H20.2638H19.8288V17.255V16.675H20.2456H20.6625V16.7838ZM20.1188 20.5356V21.4238H20.01C19.9158 21.4238 19.9013 21.4093 19.9013 21.3223C19.9013 21.2679 19.8868 21.2425 19.8723 21.2643C19.8034 21.3658 19.6584 21.4238 19.4808 21.4238C19.1509 21.4238 18.9588 21.1954 18.9588 20.8075C18.9588 20.5574 19.0131 20.4233 19.1763 20.2855C19.3394 20.1514 19.6294 20.1514 19.7889 20.2855L19.9013 20.3798V20.0136V19.6475H20.01H20.1188V20.5356ZM9.93252 19.8288V19.9375H9.46126H8.99002V20.2094V20.4813H9.38877H9.78751V20.59V20.6988H9.38877H8.99002V21.0613V21.4238H8.88126H8.77252V20.5719V19.72H9.35252H9.93252V19.8288ZM17.2188 19.8288V19.9375H16.7294H16.24V20.1913V20.445H16.6388H17.0375V20.5538V20.6625H16.6388H16.24V20.9344V21.2063H16.7294H17.2188V21.315V21.4238L16.6134 21.4165L16.0044 21.4056L15.9935 20.561L15.9863 19.72H16.6025H17.2188V19.8288ZM14.3188 20.0281V20.1913H14.5C14.6704 20.1913 14.6813 20.1985 14.6813 20.2819C14.6813 20.3653 14.6704 20.3725 14.5 20.3725H14.3188V20.7495C14.3188 21.199 14.3514 21.2606 14.5798 21.2316C14.7175 21.2135 14.7211 21.2171 14.7103 21.3078C14.6994 21.3948 14.6813 21.4056 14.5399 21.4165C14.3478 21.431 14.1991 21.373 14.1411 21.2679C14.1194 21.2244 14.0976 21.0069 14.094 20.7894L14.0831 20.3906L13.9671 20.3798C13.8693 20.3689 13.8475 20.3544 13.8475 20.2783C13.8475 20.2021 13.8656 20.1913 13.9744 20.1913C14.1013 20.1913 14.1013 20.1913 14.1013 20.0281C14.1013 19.8723 14.1049 19.865 14.21 19.865C14.3151 19.865 14.3188 19.8723 14.3188 20.0281ZM10.4038 20.2819V20.3689L10.4944 20.2819C10.5524 20.2203 10.6213 20.1913 10.7119 20.1913C10.8279 20.1913 10.8388 20.1985 10.8388 20.3C10.8388 20.3943 10.8279 20.4088 10.7336 20.4088C10.4654 20.4088 10.4038 20.5248 10.4038 21.0431V21.4238H10.295H10.1863V20.8075V20.1913H10.295C10.3856 20.1913 10.4038 20.2058 10.4038 20.2819ZM11.9263 20.2456C11.9843 20.2746 12.0749 20.3616 12.1256 20.4341C12.1981 20.5465 12.2163 20.6154 12.2163 20.8075C12.2163 21.2135 12.0096 21.4238 11.6145 21.4238C11.3535 21.4238 11.1831 21.3259 11.0889 21.1193C10.9475 20.8111 11.0345 20.4269 11.281 20.2674C11.426 20.1768 11.7668 20.1623 11.9263 20.2456ZM12.76 20.2855V20.3798L12.8724 20.2855C12.9594 20.2094 13.021 20.1913 13.1733 20.1913C13.5358 20.1913 13.6373 20.3798 13.6228 21.0069L13.6119 21.4056H13.5031H13.3944L13.3763 20.9416C13.3618 20.5356 13.3509 20.4704 13.2893 20.4233C13.2023 20.3616 13.0101 20.358 12.934 20.416C12.789 20.5393 12.76 20.6335 12.76 21.0323V21.4238H12.6513H12.5425V20.8075V20.1913H12.6513C12.7455 20.1913 12.76 20.2058 12.76 20.2855ZM17.7988 20.2855V20.3798L17.9111 20.2855C17.9981 20.213 18.0598 20.1913 18.2048 20.1913C18.3643 20.1913 18.4005 20.2058 18.5093 20.3145L18.6325 20.4378V20.9308V21.4238H18.5238H18.415V21.0033C18.415 20.4704 18.3715 20.3725 18.1323 20.3725C18.0416 20.3725 17.98 20.4015 17.9039 20.4849C17.8024 20.5973 17.7988 20.6045 17.7988 21.0105V21.4238H17.69H17.5813V20.8075V20.1913H17.69C17.7843 20.1913 17.7988 20.2058 17.7988 20.2855ZM15.66 20.7531V20.8438H15.2431H14.8263V20.7531V20.6625H15.2431H15.66V20.7531ZM15.109 23.4248L15.0981 24.3056H14.9894H14.8806L14.8698 23.4248L14.8625 22.5475H14.9894H15.1163L15.109 23.4248ZM10.1391 22.7215C10.4255 22.8701 10.5669 23.1601 10.5415 23.5444C10.5234 23.8525 10.382 24.0845 10.1319 24.2114C9.97239 24.2948 9.91439 24.3056 9.51927 24.3056H9.08064L9.06977 23.4574L9.06252 22.6128L9.52289 22.6273C9.91439 22.6381 10.0123 22.6526 10.1391 22.7215ZM11.6979 23.1638C11.8393 23.2471 11.919 23.3958 11.9516 23.6169L11.9734 23.78H11.513C11.2629 23.78 11.0563 23.7873 11.0563 23.7981C11.0563 23.8706 11.1723 24.07 11.2303 24.1026C11.3354 24.1606 11.513 24.1534 11.6399 24.0881C11.7196 24.0446 11.7631 24.041 11.8211 24.07C11.8828 24.1026 11.8864 24.1208 11.8501 24.1643C11.7668 24.2658 11.6036 24.3238 11.4079 24.3238C11.0526 24.3238 10.8388 24.0954 10.8388 23.7075C10.8388 23.3305 11.0563 23.0913 11.397 23.0913C11.5166 23.0913 11.6218 23.1166 11.6979 23.1638ZM12.528 23.5988C12.6658 24.0011 12.7093 24.0954 12.7383 24.0446C12.7564 24.0084 12.8398 23.7836 12.9231 23.5444C13.0718 23.1203 13.0754 23.1094 13.1878 23.0985C13.2566 23.0913 13.3038 23.1021 13.3038 23.1275C13.3038 23.1819 12.9848 24.0193 12.9014 24.186C12.8398 24.3056 12.8144 24.3238 12.7056 24.3238C12.586 24.3238 12.5715 24.3129 12.4881 24.1208C12.3975 23.9178 12.1075 23.1456 12.1075 23.1094C12.1075 23.0985 12.1619 23.0913 12.2308 23.0913H12.354L12.528 23.5988ZM14.3079 23.1638C14.4493 23.2471 14.529 23.3958 14.5616 23.6169L14.5834 23.78H14.123C13.8729 23.78 13.6663 23.7873 13.6663 23.7981C13.6663 23.8706 13.7823 24.07 13.8403 24.1026C13.9454 24.1606 14.123 24.1534 14.2499 24.0881C14.3296 24.0446 14.3731 24.041 14.4311 24.07C14.4928 24.1026 14.4964 24.1208 14.4601 24.1643C14.3768 24.2658 14.2136 24.3238 14.0179 24.3238C13.6626 24.3238 13.4488 24.0954 13.4488 23.7075C13.4488 23.3305 13.6663 23.0913 14.007 23.0913C14.1266 23.0913 14.2318 23.1166 14.3079 23.1638ZM16.4575 23.258C16.7076 23.5263 16.7004 23.9105 16.4394 24.1679C16.2908 24.3201 16.2799 24.3238 16.0515 24.3238C15.8666 24.3238 15.7905 24.3056 15.6963 24.2404C15.515 24.1208 15.4316 23.954 15.428 23.7111C15.4244 23.4683 15.5114 23.2979 15.6999 23.171C15.805 23.0985 15.8558 23.0876 16.0733 23.0985C16.3089 23.113 16.327 23.1203 16.4575 23.258ZM17.1716 23.1638C17.1898 23.2363 17.1898 23.2363 17.2913 23.1638C17.4254 23.0659 17.7045 23.0659 17.8604 23.1638C18.2011 23.3704 18.2048 24.0446 17.864 24.2513C17.7009 24.3491 17.429 24.3491 17.2876 24.2476L17.1825 24.1751V24.4833V24.795H17.0556H16.9288V23.9685C16.9288 23.5118 16.9396 23.1275 16.9541 23.1166C17.0085 23.0623 17.1535 23.0913 17.1716 23.1638ZM19.2379 23.1638C19.3793 23.2471 19.459 23.3958 19.4916 23.6169L19.5134 23.78H19.053C18.8029 23.78 18.5963 23.7873 18.5963 23.7981C18.5963 23.8706 18.7123 24.07 18.7703 24.1026C18.8754 24.1606 19.053 24.1534 19.1799 24.0881C19.2596 24.0446 19.3031 24.041 19.3611 24.07C19.4228 24.1026 19.4264 24.1208 19.3901 24.1643C19.3068 24.2658 19.1436 24.3238 18.9479 24.3238C18.5926 24.3238 18.3788 24.0954 18.3788 23.7075C18.3788 23.3305 18.5963 23.0913 18.937 23.0913C19.0566 23.0913 19.1618 23.1166 19.2379 23.1638ZM20.0354 23.1638C20.0535 23.2363 20.0535 23.2363 20.1441 23.1638C20.1949 23.1239 20.2928 23.0913 20.358 23.0913C20.4704 23.0913 20.4813 23.1021 20.4813 23.2C20.4813 23.3015 20.474 23.3088 20.3435 23.3088C20.1079 23.3088 20.068 23.3885 20.0463 23.8815L20.0281 24.3056H19.9194H19.8106L19.7998 23.7438C19.7961 23.4356 19.7998 23.1638 19.807 23.1384C19.8396 23.0623 20.0136 23.0804 20.0354 23.1638Z" fill="black"/>
<path d="M7.76109 5.77101C7.11946 5.88338 6.60109 6.75338 6.59021 7.73938C6.58296 8.19975 6.65546 8.43175 6.86571 8.64563C7.13396 8.91025 7.53271 8.95013 7.86259 8.7435C8.07284 8.61663 8.34109 8.25775 8.64921 7.6995C8.78696 7.453 8.91384 7.25725 8.93196 7.26088C8.95009 7.26813 9.10596 7.50738 9.27996 7.79375C9.66784 8.43538 9.93609 8.7435 10.1753 8.82325C10.4182 8.90663 10.614 8.89575 10.8242 8.79063C11.0236 8.68913 11.1323 8.55138 11.2193 8.27225C11.2955 8.03663 11.2773 7.34788 11.1867 7.01438C11.107 6.73163 10.9112 6.34013 10.8641 6.36913C10.846 6.38 10.8387 6.37275 10.8496 6.35463C10.8641 6.33288 10.8387 6.26763 10.7916 6.21325C10.4798 5.81088 10.005 5.65863 9.60984 5.83626C9.52284 5.87613 9.34884 6.0175 9.22196 6.14801L8.99359 6.38725L8.78334 6.16975C8.45709 5.83626 8.12721 5.70575 7.76109 5.77101ZM10.1355 6.19513C10.5451 6.38 10.8387 7.02888 10.8387 7.743C10.8387 8.20338 10.7408 8.37375 10.4798 8.37375C10.2732 8.37375 10.1282 8.20338 9.55184 7.25363C9.20021 6.67 9.20384 6.70263 9.44671 6.41988C9.57721 6.27126 9.81284 6.12626 9.93246 6.12626C9.96146 6.12626 10.0521 6.15888 10.1355 6.19513ZM8.09459 6.28575C8.21059 6.31113 8.44984 6.51775 8.59484 6.71713L8.69634 6.85488L8.36646 7.36963C7.81909 8.22875 7.68496 8.37375 7.44209 8.37375C7.29346 8.37375 7.19196 8.28675 7.11946 8.10188C6.95271 7.66325 7.24996 6.63738 7.61971 6.37638C7.72846 6.29663 7.89521 6.23863 7.95684 6.25675C7.97859 6.26038 8.03659 6.27488 8.09459 6.28575Z" fill="black"/>
<path d="M12.2888 7.34063V8.845H12.5244H12.7601V7.71038C12.7637 6.71713 12.7673 6.58663 12.8144 6.64825C12.8434 6.68813 13.0428 7.0325 13.2567 7.42038L13.6409 8.12H13.8802L14.1194 8.11638L14.5363 7.35875L14.9532 6.60113L14.9713 7.714L14.9894 8.82688H15.2251H15.4607V7.34063V5.85438H15.1707H14.8807L14.3949 6.73163C14.1267 7.21738 13.8947 7.6125 13.8838 7.6125C13.8693 7.6125 13.6482 7.23188 13.3944 6.76788C13.1407 6.3075 12.9159 5.90513 12.8942 5.87975C12.8724 5.85075 12.7601 5.83625 12.5752 5.83625H12.2888V7.34063Z" fill="black"/>
<path d="M18.5963 6.27125V6.5975H18.3788H18.1613V6.79688V6.99625H18.3788H18.5963V7.63425C18.5963 8.34838 18.6253 8.50425 18.7956 8.68188C18.9551 8.85588 19.2778 8.92475 19.6076 8.8595C19.7164 8.83775 19.72 8.8305 19.72 8.642V8.44625H19.488C19.314 8.44625 19.2343 8.42813 19.1726 8.37738C19.0893 8.3085 19.0856 8.29038 19.0748 7.65238L19.0639 6.99625H19.3901H19.72V6.79688V6.5975H19.3938H19.0711L19.0603 6.2785L19.0494 5.96313L18.8246 5.95225L18.5963 5.94138V6.27125Z" fill="black"/>
<path d="M16.6025 6.61562C16.1204 6.76424 15.8195 7.34787 15.9174 7.94237C16.008 8.50062 16.3705 8.83412 16.9324 8.87399C17.2441 8.89574 17.5921 8.80874 17.7987 8.66012C17.8785 8.60212 17.9437 8.54412 17.9437 8.52599C17.9401 8.51149 17.8857 8.43899 17.8205 8.36287L17.7045 8.22149L17.5667 8.31574C17.2224 8.54774 16.7837 8.52599 16.5409 8.26137C16.4647 8.17799 16.385 8.01124 16.385 7.93512C16.385 7.91699 16.7185 7.90249 17.2006 7.90249H18.0162V7.78287C18.0162 7.42037 17.864 6.99624 17.6646 6.80774C17.4217 6.57574 16.9867 6.49962 16.6025 6.61562ZM17.255 7.03974C17.4072 7.14487 17.4979 7.27174 17.5269 7.42037L17.5522 7.53999H16.9686C16.3234 7.53999 16.3415 7.54724 16.4539 7.30074C16.5155 7.16299 16.6496 7.03612 16.7837 6.98537C16.9179 6.93462 17.139 6.96362 17.255 7.03974Z" fill="black"/>
<path d="M20.5248 6.67363C19.7526 7.05788 19.7671 8.41725 20.5465 8.79425C20.7169 8.874 21.0359 8.89938 21.2316 8.84863C21.315 8.82688 21.46 8.75075 21.5506 8.68188L21.7138 8.555V8.7V8.845H21.9313H22.1488V7.72125V6.5975H21.9313H21.7138V6.72438C21.7138 6.86938 21.6811 6.88388 21.5833 6.77513C21.4636 6.641 21.2461 6.56125 20.9851 6.56125C20.7894 6.56125 20.706 6.583 20.5248 6.67363ZM21.3911 7.05425C21.4455 7.07963 21.5289 7.15213 21.5833 7.21375C21.6703 7.3225 21.6775 7.3515 21.6775 7.71038C21.6775 8.062 21.6703 8.1055 21.5905 8.21063C21.4709 8.3665 21.2896 8.44625 21.0504 8.44625C20.8111 8.44625 20.648 8.34838 20.5284 8.13813C20.4124 7.9315 20.4124 7.511 20.5284 7.308C20.706 6.99625 21.0649 6.89113 21.3911 7.05425Z" fill="black"/>
<path d="M11.2013 17.0737V17.255H11.3427C11.571 17.255 11.6725 17.2006 11.6725 17.081C11.6725 16.936 11.6109 16.8925 11.3934 16.8925H11.2013V17.0737Z" fill="black"/>
<path d="M17.7335 17.1499L17.6573 17.3637H17.8168C17.9075 17.3637 17.98 17.3492 17.98 17.3347C17.98 17.2767 17.864 16.965 17.8386 16.9505C17.8241 16.9396 17.777 17.0302 17.7335 17.1499Z" fill="black"/>
<path d="M19.3648 20.4088C19.2016 20.4776 19.1291 20.8039 19.227 21.0431C19.3104 21.2389 19.5061 21.3005 19.7164 21.1918C19.836 21.1265 19.9013 20.996 19.9013 20.8075C19.9013 20.474 19.6584 20.2928 19.3648 20.4088Z" fill="black"/>
<path d="M11.4079 20.4486C11.1179 20.6734 11.2593 21.2425 11.6036 21.2425C11.9118 21.2425 12.0785 20.938 11.9589 20.5936C11.8864 20.3834 11.5855 20.3036 11.4079 20.4486Z" fill="black"/>
<path d="M9.31628 23.4719V24.1062H9.57728C10.092 24.1062 10.3168 23.8887 10.2878 23.4139C10.266 22.9897 10.0812 22.8375 9.59903 22.8375H9.31628V23.4719Z" fill="black"/>
<path d="M11.2266 23.3124C11.1723 23.345 11.0563 23.548 11.0563 23.6096C11.0563 23.6205 11.2049 23.6277 11.3825 23.6314L11.7088 23.6386V23.5444C11.7088 23.3377 11.4188 23.2 11.2266 23.3124Z" fill="black"/>
<path d="M13.8366 23.3124C13.7823 23.345 13.6663 23.548 13.6663 23.6096C13.6663 23.6205 13.8149 23.6277 13.9925 23.6314L14.3188 23.6386V23.5444C14.3188 23.3377 14.0288 23.2 13.8366 23.3124Z" fill="black"/>
<path d="M15.8303 23.3124C15.6708 23.4066 15.6092 23.7546 15.7143 23.9649C15.8231 24.1679 16.1095 24.2041 16.2798 24.0374C16.3741 23.9431 16.385 23.9069 16.385 23.7075C16.385 23.5081 16.3741 23.4719 16.2798 23.3776C16.1965 23.2979 16.1385 23.2725 16.0333 23.2725C15.9572 23.2725 15.8666 23.2906 15.8303 23.3124Z" fill="black"/>
<path d="M17.2876 23.3776C17.1934 23.4719 17.1825 23.5081 17.1825 23.7075C17.1825 23.9069 17.1934 23.9431 17.2876 24.0374C17.4399 24.1896 17.6465 24.186 17.777 24.0301C17.8567 23.9395 17.8712 23.8815 17.8712 23.7075C17.8712 23.5335 17.8567 23.4755 17.777 23.3849C17.6465 23.229 17.4399 23.2254 17.2876 23.3776Z" fill="black"/>
<path d="M18.7667 23.3124C18.7087 23.345 18.5963 23.548 18.5963 23.6169C18.5963 23.6277 18.7449 23.635 18.9226 23.635C19.2488 23.635 19.2488 23.635 19.2488 23.5444C19.2488 23.3377 18.9588 23.2 18.7667 23.3124Z" fill="black"/>
</g>
<defs>
<clipPath id="clip0_1125_3">
<rect width="29" height="29" fill="white"/>
</clipPath>
</defs>
</svg>
